<?xml version="1.0" encoding="UTF-8"?>
<!DOCTYPE svg PUBLIC "-//W3C//DTD SVG 1.1//EN" "http://www.w3.org/Graphics/SVG/1.1/DTD/svg11.dtd">
<svg xmlns="http://www.w3.org/2000/svg" version="1.1" width="512px" height="512px" style="shape-rendering:geometricPrecision; text-rendering:geometricPrecision; image-rendering:optimizeQuality; fill-rule:evenodd; clip-rule:evenodd" xmlns:xlink="http://www.w3.org/1999/xlink">
<g><path style="opacity:1" fill="#114422" d="M 40.5,-0.5 C 183.833,-0.5 327.167,-0.5 470.5,-0.5C 491.833,5.5 505.5,19.1667 511.5,40.5C 511.5,183.833 511.5,327.167 511.5,470.5C 505.5,491.833 491.833,505.5 470.5,511.5C 327.167,511.5 183.833,511.5 40.5,511.5C 19.1667,505.5 5.5,491.833 -0.5,470.5C -0.5,327.167 -0.5,183.833 -0.5,40.5C 5.5,19.1667 19.1667,5.5 40.5,-0.5 Z"/></g>
<g><path style="opacity:1" fill="#35aa6c" d="M 312.5,116.5 C 305.08,116.203 297.746,116.536 290.5,117.5C 293.768,116.178 297.435,115.511 301.5,115.5C 305.349,115.501 309.016,115.835 312.5,116.5 Z"/></g>
<g><path style="opacity:1" fill="#54fca8" d="M 312.5,116.5 C 283.427,209.386 254.76,302.386 226.5,395.5C 219.167,395.5 211.833,395.5 204.5,395.5C 232.86,302.725 261.526,210.058 290.5,117.5C 297.746,116.536 305.08,116.203 312.5,116.5 Z"/></g>
<g><path style="opacity:1" fill="#54fca8" d="M 166.5,181.5 C 167.824,185.107 168.491,189.107 168.5,193.5C 168.167,197.5 167.833,201.5 167.5,205.5C 129.167,221.333 90.8333,237.167 52.5,253C 90.6884,269.258 129.022,285.258 167.5,301C 168.482,308.747 168.815,316.58 168.5,324.5C 122.649,305.579 76.9828,286.079 31.5,266C 30.1847,257.559 30.1847,249.059 31.5,240.5C 76.7068,221.058 121.707,201.391 166.5,181.5 Z"/></g>
<g><path style="opacity:1" fill="#54fca8" d="M 344.5,324.5 C 343.508,317.018 343.175,309.352 343.5,301.5C 381.774,285.368 420.108,269.201 458.5,253C 420.167,237.167 381.833,221.333 343.5,205.5C 342.502,197.528 342.169,189.528 342.5,181.5C 388.251,200.873 433.917,220.54 479.5,240.5C 480.815,249.059 480.815,257.559 479.5,266C 434.479,285.512 389.479,305.012 344.5,324.5 Z"/></g>
<g><path style="opacity:1" fill="#319c61" d="M 343.5,301.5 C 343.175,309.352 343.508,317.018 344.5,324.5C 344.44,325.043 344.107,325.376 343.5,325.5C 342.18,317.343 342.18,309.343 343.5,301.5 Z"/></g>
</svg>
